<?xml version="1.0" encoding="UTF-8" standalone="no"?>
<!-- Created with Inkscape (http://www.inkscape.org/) -->

<svg
   xmlns:dc="http://purl.org/dc/elements/1.1/"
   xmlns:cc="http://creativecommons.org/ns#"
   xmlns:rdf="http://www.w3.org/1999/02/22-rdf-syntax-ns#"
   xmlns:svg="http://www.w3.org/2000/svg"
   xmlns="http://www.w3.org/2000/svg"
   xmlns:sodipodi="http://sodipodi.sourceforge.net/DTD/sodipodi-0.dtd"
   xmlns:inkscape="http://www.inkscape.org/namespaces/inkscape"
   width="16"
   height="16"
   id="svg4040"
   version="1.1"
   inkscape:version="0.91 r13725"
   viewBox="0 0 16 16"
   sodipodi:docname="drawing.svg">
  <defs
     id="defs4042" />
  <sodipodi:namedview
     id="base"
     pagecolor="#ffffff"
     bordercolor="#666666"
     borderopacity="1.0"
     inkscape:pageopacity="0.0"
     inkscape:pageshadow="2"
     inkscape:zoom="22.197802"
     inkscape:cx="-2.4514852"
     inkscape:cy="9.8019802"
     inkscape:current-layer="layer4"
     showgrid="true"
     inkscape:grid-bbox="true"
     inkscape:document-units="px"
     inkscape:snap-text-baseline="true"
     inkscape:window-width="1366"
     inkscape:window-height="744"
     inkscape:window-x="0"
     inkscape:window-y="24"
     inkscape:window-maximized="1" />
  <metadata
     id="metadata4045">
    <rdf:RDF>
      <cc:Work
         rdf:about="">
        <dc:format>image/svg+xml</dc:format>
        <dc:type
           rdf:resource="http://purl.org/dc/dcmitype/StillImage" />
      </cc:Work>
    </rdf:RDF>
  </metadata>
  <g
     id="layer1"
     inkscape:label="Layer 1"
     inkscape:groupmode="layer"
     style="display:inline"
     sodipodi:insensitive="true">
    <rect
       style="fill:#fff0f0;fill-opacity:1"
       id="rect4088"
       width="16"
       height="16"
       x="0"
       y="-9.5367432e-07" />
  </g>
  <g
     inkscape:groupmode="layer"
     id="layer3"
     inkscape:label="holes"
     sodipodi:insensitive="true"
     style="display:inline">
    <rect
       style="fill:#ffffff;fill-opacity:1"
       id="rect4093"
       width="15.799999"
       height="2"
       x="0.1"
       y="13.900001" />
    <rect
       style="fill:none;fill-opacity:1"
       id="rect4093-3"
       width="15.8"
       height="2"
       x="0.1"
       y="11.799999" />
    <rect
       style="fill:#ffffff;fill-opacity:1"
       id="rect4093-3-6"
       width="15.8"
       height="2"
       x="0.1"
       y="9.7000008" />
    <rect
       style="fill:none;fill-opacity:1"
       id="rect4093-3-6-7"
       width="15.8"
       height="2"
       x="0.1"
       y="7.5999999" />
    <rect
       style="fill:#ffffff;fill-opacity:1"
       id="rect4093-3-6-7-5"
       width="15.8"
       height="2"
       x="0.1"
       y="5.5000005" />
    <rect
       style="fill:none;fill-opacity:1"
       id="rect4093-3-6-7-5-3"
       width="15.8"
       height="2"
       x="0.1"
       y="3.4000006" />
    <path
       style="fill:#ff6e64;fill-opacity:1"
       d="m 0.02623755,7.995495 0,-7.9962871505 7.97376245,0 7.973762,0 0,7.9962871505 0,7.996287 -7.973762,0 -7.97376245,0 0,-7.996287 z m 15.90247545,6.892574 0,-1.013614 -7.928713,0 -7.92871294,0 0,1.013614 0,1.013614 7.92871294,0 7.928713,0 0,-1.013614 z m 0,-2.072277 0,-1.013614 -7.928713,0 -7.92871294,0 0,1.013614 0,1.013614 7.92871294,0 7.928713,0 0,-1.013614 z m 0,-2.117327 0,-1.0136135 -7.928713,0 -7.92871294,0 0,1.0136135 0,1.013614 7.92871294,0 7.928713,0 0,-1.013614 z m -0.02252,-2.0948016 0,-1.0136139 -7.906188,0 -7.90618819,0 -0.01218784,0.9674503 c -0.0067033,0.5320977 -0.0022497,0.9933488 0.0098968,1.0250024 0.01782828,0.046459 1.54393573,0.055357 7.91837613,0.046163 l 7.8962911,-0.011388 0,-1.0136138 z m 0.02252,-2.094802 0,-1.0136139 -7.928713,0 -7.92871294,0 0,1.0136139 0,1.0136138 7.92871294,0 7.928713,0 0,-1.0136138 z m 0,-2.1173268 0,-1.0136138 -7.928713,0 -7.92871294,0 0,1.0136138 0,1.0136139 7.92871294,0 7.928713,0 0,-1.0136139 z"
       id="path4170"
       inkscape:connector-curvature="0" />
    <path
       style="fill:none;fill-opacity:1"
       d="m 0.11633656,8.6036634 0,-0.9910891 7.88366344,0 7.883663,0 0,0.9910891 0,0.9910891 -7.883663,0 -7.88366344,0 0,-0.9910891 z"
       id="path4172"
       inkscape:connector-curvature="0" />
    <path
       style="fill:none;fill-opacity:1"
       d="m 0.11633656,8.6036634 0,-0.9910891 7.88366344,0 7.883663,0 0,0.9910891 0,0.9910891 -7.883663,0 -7.88366344,0 0,-0.9910891 z"
       id="path4174"
       inkscape:connector-curvature="0" />
    <path
       style="fill:none;fill-opacity:1"
       d="m 0.11633656,8.6036634 0,-0.9910891 7.88366344,0 7.883663,0 0,0.9910891 0,0.9910891 -7.883663,0 -7.88366344,0 0,-0.9910891 z"
       id="path4176"
       inkscape:connector-curvature="0" />
    <path
       style="fill:none;fill-opacity:1"
       d="m 0.11633656,8.6036634 0,-0.9910891 7.88366344,0 7.883663,0 0,0.9910891 0,0.9910891 -7.883663,0 -7.88366344,0 0,-0.9910891 z"
       id="path4178"
       inkscape:connector-curvature="0" />
  </g>
  <g
     inkscape:groupmode="layer"
     id="layer4"
     inkscape:label="texto" />
</svg>
